<?xml version="1.0" encoding="UTF-8" standalone="no"?>
<!DOCTYPE svg PUBLIC "-//W3C//DTD SVG 1.1//EN" "http://www.w3.org/Graphics/SVG/1.1/DTD/svg11.dtd">
<svg width="100%" height="100%" viewBox="0 0 1080 1080" version="1.1" xmlns="http://www.w3.org/2000/svg" xmlns:xlink="http://www.w3.org/1999/xlink" xml:space="preserve" xmlns:serif="http://www.serif.com/" style="fill-rule:evenodd;clip-rule:evenodd;stroke-linejoin:round;stroke-miterlimit:2;">
    <g transform="matrix(1,0,0,1,-40891.6,-23174.9)">
        <g id="Artboard11" transform="matrix(3.6923,0,0,3.08368,-102309,-48202.5)">
            <rect x="38783.6" y="23146.8" width="292.501" height="350.231" style="fill:none;"/>
            <g transform="matrix(0.763509,0.914202,-0.763509,0.914202,27021.2,-33598.5)">
                <g>
                    <g transform="matrix(2.97212,0,0,2.97212,-76772.4,-45875.3)">
                        <path d="M38925.8,23295L38910.8,23309.1C38909.6,23310.3 38908.4,23307.1 38908.6,23307L38903.4,23291.2C38903.4,23288.9 38904.3,23287.9 38905.6,23286.8L38914.6,23278.1C38914.6,23278 38914.6,23278 38914.6,23277.9C38913.2,23273.7 38913.3,23269.6 38913.3,23266.8C38913.3,23258.4 38923.6,23243.1 38929.2,23243.1C38934.9,23243.1 38945.2,23258.4 38945.2,23266.8C38945.2,23269.6 38945.3,23273.7 38943.9,23277.9C38943.9,23278 38943.9,23278 38943.9,23278.1L38952.9,23286.8C38954.2,23287.9 38955.1,23288.9 38955.1,23291.2L38949.9,23307C38950.1,23307.1 38948.9,23310.3 38947.7,23309.1L38932.7,23295C38931.5,23295.7 38930.4,23296.1 38929.2,23296.1C38928.1,23296.1 38927,23295.7 38925.8,23295ZM38929.2,23258.4C38926.4,23258.4 38924.1,23260.8 38924.1,23263.6C38924.1,23266.4 38926.4,23268.8 38929.2,23268.8C38932.1,23268.8 38934.4,23266.4 38934.4,23263.6C38934.4,23260.8 38932.1,23258.4 38929.2,23258.4Z"/>
                    </g>
                    <g transform="matrix(2.09252,0,0,2.09252,-42530.4,-25270.4)">
                        <path d="M38929.2,23248.3C38937.7,23248.3 38944.6,23255.1 38944.6,23263.6C38944.6,23269.8 38934.5,23287.6 38929.2,23287.6C38924,23287.6 38913.9,23269.8 38913.9,23263.6C38913.9,23255.1 38920.8,23248.3 38929.2,23248.3ZM38929.2,23259.3C38926.4,23259.3 38924,23261.7 38924,23264.6C38924,23267.4 38926.4,23269.8 38929.2,23269.8C38932.1,23269.8 38934.5,23267.4 38934.5,23264.6C38934.5,23261.7 38932.1,23259.3 38929.2,23259.3Z"/>
                    </g>
                </g>
            </g>
        </g>
    </g>
</svg>
